<svg width="20" height="20" viewBox="0 0 20 20" fill="none" xmlns="http://www.w3.org/2000/svg">
<path d="M10.0006 0.277437C4.49351 0.277437 0.0318756 4.74281 0.0318756 10.2462C0.0318756 14.653 2.88792 18.3882 6.84614 19.7059C7.34645 19.8 7.52713 19.4916 7.52713 19.2249C7.52713 18.9882 7.52152 18.362 7.51778 17.5308C4.74336 18.1315 4.15894 16.1907 4.15894 16.1907C3.70474 15.0418 3.04929 14.7334 3.04929 14.7334C2.14712 14.1172 3.12094 14.1303 3.12094 14.1303C4.12031 14.1982 4.64616 15.1552 4.64616 15.1552C5.53525 16.6804 6.97885 16.2393 7.55018 15.9826C7.63741 15.3402 7.89722 14.8985 8.18008 14.6524C5.96702 14.4025 3.63994 13.5458 3.63994 9.72594C3.63994 8.63499 4.02623 7.74652 4.66485 7.04871C4.55457 6.79887 4.21688 5.7833 4.7527 4.41011C4.7527 4.41011 5.58696 4.14407 7.49411 5.43253C8.29223 5.21134 9.13957 5.10107 9.9863 5.09546C10.8336 5.10107 11.6804 5.21197 12.4785 5.43253C14.3744 4.14407 15.2081 4.41011 15.2081 4.41011C15.7432 5.7833 15.4056 6.79824 15.3084 7.04871C15.9408 7.74652 16.327 8.63561 16.327 9.72594C16.327 13.5546 13.9968 14.3988 11.7813 14.6424C12.1277 14.9408 12.4523 15.5545 12.4523 16.486C12.4523 17.8193 12.4399 18.8935 12.4399 19.2181C12.4399 19.4772 12.6143 19.7888 13.1277 19.6885C17.1152 18.3844 19.9681 14.6461 19.9681 10.2456C19.9681 4.74219 15.5065 0.276814 9.99938 0.276814L10.0006 0.277437Z" fill="white"/>
</svg>
