<svg width="26" height="16" viewBox="0 0 26 16" fill="none" xmlns="http://www.w3.org/2000/svg">
<path fill-rule="evenodd" clip-rule="evenodd" d="M25.2448 1.54167C25.4302 0.954167 25.2448 0.527083 24.4245 0.527083H21.6969C21.0089 0.527083 20.6912 0.901042 20.5057 1.30104C20.5057 1.30104 19.1026 4.71771 17.1432 6.93281C16.5078 7.57344 16.2167 7.78698 15.8724 7.78698C15.687 7.78698 15.4485 7.57344 15.4485 6.98646V1.51406C15.4485 0.820313 15.237 0.5 14.6542 0.5H10.3646C9.94064 0.5 9.67606 0.820313 9.67606 1.14063C9.67606 1.80781 10.6557 1.96823 10.7615 3.83646V7.89583C10.7615 8.77656 10.6052 8.9375 10.2584 8.9375C9.33179 8.9375 7.08127 5.49427 5.73127 1.57083C5.46877 0.79375 5.2021 0.5 4.51356 0.5H1.75991C0.965643 0.5 0.833351 0.873438 0.833351 1.27396C0.833351 1.99479 1.75991 5.62448 5.14898 10.4286C7.3995 13.7099 10.6031 15.4734 13.4891 15.4734C15.237 15.4734 15.4485 15.0729 15.4485 14.4057V11.9234C15.4485 11.1229 15.6073 10.9896 16.1636 10.9896C16.5604 10.9896 17.2755 11.2026 18.8906 12.7776C20.7438 14.6458 21.0615 15.5 22.0943 15.5H24.8214C25.6156 15.5 25.9865 15.0995 25.7745 14.3255C25.5365 13.5516 24.636 12.4307 23.4708 11.0964C22.8354 10.3495 21.8823 9.52187 21.5912 9.12135C21.1943 8.5875 21.3 8.37396 21.5912 7.89375C21.5646 7.89375 24.9011 3.14271 25.2448 1.53958" fill="white"/>
</svg>
