<svg width="30" height="20" viewBox="0 0 30 20" fill="none" xmlns="http://www.w3.org/2000/svg">
<path d="M29.3737 3.08822C29.1998 2.49392 28.8681 1.95245 28.4108 1.51615C27.9534 1.07985 27.3857 0.763481 26.7627 0.597619C24.4243 1.71345e-05 15.0133 1.69208e-05 15.0133 1.69208e-05C15.0133 1.69208e-05 5.62611 -0.011911 3.26398 0.597619C2.64095 0.763481 2.07332 1.07985 1.61593 1.51615C1.15855 1.95245 0.826891 2.49392 0.653013 3.08822C0.209749 5.37189 -0.00878259 7.69007 0.000270091 10.0125C-0.00707122 12.3262 0.211453 14.6356 0.653013 16.9106C0.826891 17.5049 1.15855 18.0464 1.61593 18.4827C2.07332 18.919 2.64095 19.2353 3.26398 19.4012C5.59985 20 15.0133 20 15.0133 20C15.0133 20 24.3993 20 26.7627 19.4012C27.3857 19.2353 27.9534 18.919 28.4108 18.4827C28.8681 18.0464 29.1998 17.5049 29.3737 16.9106C29.806 14.6347 30.0153 12.3254 29.9989 10.0125C30.017 7.69089 29.8077 5.37271 29.3737 3.08822ZM12.0097 14.2959V5.716L19.8426 10.0125L12.0097 14.2959Z" fill="white"/>
</svg>
